<svg xmlns="http://www.w3.org/2000/svg" xmlns:xlink="http://www.w3.org/1999/xlink" width="500" zoomAndPan="magnify" viewBox="0 0 375 374.999991" height="500" preserveAspectRatio="xMidYMid meet" version="1.0"><defs><g/></defs><path stroke-linecap="butt" transform="matrix(2.232811, 0, 0, 2.232811, -36.362436, 109.764595)" fill="none" stroke-linejoin="miter" d="M 36.46221 52.358793 C 49.639266 52.358793 51.514705 40.523584 53.153965 29.587607 C 55.993365 29.430154 58.388398 29.482639 60.302325 29.482639 C 62.12528 29.482639 60.472025 26.4368 57.907292 26.279347 C 56.682659 26.228612 55.237591 26.228612 53.687555 26.331831 C 54.548297 21.111394 55.667962 16.463035 58.335914 13.859814 C 59.663767 12.517965 57.699104 11.723703 56.254037 12.204809 C 51.345006 13.859814 48.948223 20.42035 46.813862 27.295793 C 44.522048 27.724415 42.07453 28.362974 39.509798 29.20972 C 37.217984 29.965494 38.598321 32.308043 40.890135 31.669484 C 42.595874 31.188378 44.249129 30.810491 45.797416 30.499084 C 43.454867 38.063821 41.00735 45.002244 35.186841 45.002244 C 32.153249 45.002244 29.796704 43.193286 29.796704 39.820295 C 29.796704 36.149893 33.22043 34.286701 36.46221 34.286701 C 39.026942 34.286701 36.945065 31.513781 34.014692 31.513781 C 29.966404 31.513781 25.746666 35.341635 25.746666 41.00644 C 25.746666 48.140805 31.033584 52.358793 36.46221 52.358793 Z M 25.109857 10.604038 C 25.160592 16.046659 29.796704 20.044213 34.808954 20.044213 C 40.095872 20.044213 43.194195 13.859814 39.562282 13.859814 C 33.155699 13.859814 31.033584 11.776187 31.033584 8.742595 C 31.033584 6.072894 33.428618 4.197455 38.012246 4.197455 C 46.55319 4.197455 54.599032 11.190113 62.541655 11.190113 C 67.723605 11.190113 72.307233 9.431889 72.307233 4.31467 C 72.307233 2.180309 70.171122 0.252386 70.171122 2.07534 C 70.171122 4.24994 66.96958 5.539304 63.12773 5.539304 C 54.012958 5.539304 45.108122 1.00816 37.69909 1.00816 C 29.966404 1.00816 25.057373 5.005713 25.109857 10.604038 Z M 70.066154 48.999798 C 75.456291 48.999798 78.439148 43.296505 79.350625 38.544927 C 83.71207 38.336739 86.915361 34.808045 87.448952 31.930156 C 87.982542 29.104752 86.171834 27.67368 84.831735 30.602303 C 83.295695 34.066267 80.886666 34.872775 79.662032 34.872775 C 79.662032 31.032675 78.489883 27.881868 75.561259 27.881868 C 73.960488 27.881868 72.61864 29.430154 72.61864 31.930156 C 72.61864 34.066267 73.582601 36.200628 75.508775 37.477746 C 74.871965 40.145698 73.15223 42.659695 71.238303 42.659695 C 69.690016 42.659695 68.517867 41.00644 68.517867 37.425262 C 68.517867 33.858079 70.171122 29.326935 74.9227 26.814687 C 76.733408 25.850725 75.716963 23.989282 73.85552 23.989282 C 67.240749 23.989282 61.264538 31.240862 61.264538 39.40392 C 61.264538 45.159697 65.209607 48.999798 70.066154 48.999798 Z M 91.024882 48.999798 C 96.415019 48.999798 99.396126 43.296505 100.307604 38.544927 C 104.669049 38.336739 107.87234 34.808045 108.40593 31.930156 C 108.939521 29.104752 107.130562 27.67368 105.788713 30.602303 C 104.252673 34.066267 101.843644 34.872775 100.62076 34.872775 C 100.62076 31.032675 99.448611 27.881868 96.519987 27.881868 C 94.917467 27.881868 93.577368 29.430154 93.577368 31.930156 C 93.577368 34.066267 94.53958 36.200628 96.467503 37.477746 C 95.828944 40.145698 94.110958 42.659695 92.197031 42.659695 C 90.646995 42.659695 89.474845 41.00644 89.474845 37.425262 C 89.474845 33.858079 91.128101 29.326935 95.881428 26.814687 C 97.690387 25.850725 96.675691 23.989282 94.814248 23.989282 C 88.199477 23.989282 82.223266 31.240862 82.223266 39.40392 C 82.223266 45.159697 86.168335 48.999798 91.024882 48.999798 Z M 124.299924 48.999798 C 129.103986 48.999798 134.013017 41.057175 137.046609 31.930156 C 137.958087 29.157236 135.601542 27.881868 134.429393 30.602303 C 130.965429 38.70063 128.934287 42.659695 126.694957 42.659695 C 125.575292 42.659695 124.677811 41.370331 124.677811 37.906368 C 124.677811 27.934352 128.400697 16.893406 131.017913 10.707257 C 132.242547 7.831118 125.744991 8.09179 123.505662 12.257293 C 121.318816 16.254847 119.976968 21.319581 119.077737 26.020425 C 118.115525 24.783545 116.721192 23.936798 114.859749 23.936798 C 108.246728 23.936798 103.454912 31.930156 103.454912 39.131001 C 103.454912 45.262916 106.917126 48.999798 111.708942 48.999798 C 114.599077 48.999798 116.838407 46.812952 118.544146 43.831844 C 119.663811 46.968656 121.852406 48.999798 124.299924 48.999798 Z M 110.706492 38.975298 C 110.706492 34.169486 113.206494 27.881868 115.718742 27.881868 C 117.046594 27.881868 118.493411 29.104752 118.06304 33.102305 C 117.424481 38.649895 114.912233 42.659695 112.620419 42.659695 C 111.553238 42.659695 110.706492 41.057175 110.706492 38.975298 Z M 141.364317 48.999798 C 146.273348 48.947314 151.390567 41.057175 154.436405 31.930156 C 155.386371 29.054017 152.991338 27.881868 151.819189 30.602303 C 148.30449 38.817845 145.634789 42.659695 143.122541 42.659695 C 141.68972 42.659695 140.45284 41.00644 140.45284 36.630999 C 140.505324 33.635896 141.261098 30.016229 142.483982 27.190824 C 143.708616 24.36542 136.988877 24.678576 135.127434 28.896564 C 133.579147 32.360527 133.370959 36.097409 133.421694 39.3007 C 133.526663 44.951509 136.194614 49.052282 141.364317 48.999798 Z M 138.21351 19.35317 C 138.21351 20.88921 139.555359 21.95814 141.15613 21.95814 C 144.189722 21.95814 146.962642 20.199916 146.962642 17.426996 C 146.962642 15.824476 145.739758 14.496623 143.811835 14.444139 C 140.933946 14.34092 138.21351 16.58025 138.21351 19.35317 Z M 159.179236 48.999798 C 167.069375 48.999798 172.772668 39.989994 175.337401 31.930156 C 176.131663 29.430154 173.839849 27.621196 172.720184 30.654788 C 170.701288 36.253112 165.311151 42.659695 161.145648 42.659695 C 158.007087 42.659695 157.200578 40.30315 157.200578 36.839187 L 157.200578 36.578515 C 162.746419 36.358081 167.394778 33.635896 167.394778 29.20972 C 167.394778 26.279347 165.155448 23.936798 161.196382 23.936798 C 154.530877 23.936798 149.791545 31.396566 149.84403 37.750664 C 149.791545 45.262916 154.700576 48.999798 159.179236 48.999798 Z M 157.6292 33.21952 C 158.320243 30.329385 159.712826 27.348277 162.057125 27.348277 C 163.435712 27.348277 163.762864 28.362974 163.762864 29.20972 C 163.762864 31.774453 160.662792 32.999086 157.6292 33.21952 Z M 157.6292 33.21952 " stroke="#000000" stroke-width="13.999991" stroke-opacity="1" stroke-miterlimit="4"/><g fill="#ffcd75" fill-opacity="1"><g transform="translate(19.702049, 219.172326)"><g><path d="M 25.363281 7.5 C 54.773438 7.5 58.941406 -18.933594 62.632812 -43.34375 C 68.945312 -43.699219 74.304688 -43.582031 78.589844 -43.582031 C 82.636719 -43.582031 78.945312 -50.367188 73.230469 -50.726562 C 70.492188 -50.84375 67.277344 -50.84375 63.824219 -50.605469 C 65.730469 -62.277344 68.230469 -72.636719 74.183594 -78.472656 C 77.160156 -81.449219 72.753906 -83.234375 69.539062 -82.164062 C 58.585938 -78.472656 53.226562 -63.824219 48.464844 -48.464844 C 43.34375 -47.511719 37.867188 -46.082031 32.152344 -44.175781 C 27.03125 -42.511719 30.125 -37.269531 35.246094 -38.699219 C 39.058594 -39.769531 42.75 -40.605469 46.203125 -41.320312 C 40.960938 -24.410156 35.484375 -8.929688 22.503906 -8.929688 C 15.71875 -8.929688 10.480469 -12.980469 10.480469 -20.480469 C 10.480469 -28.699219 18.097656 -32.863281 25.363281 -32.863281 C 31.078125 -32.863281 26.433594 -39.058594 19.886719 -39.058594 C 10.835938 -39.058594 1.429688 -30.484375 1.429688 -17.863281 C 1.429688 -1.90625 13.21875 7.5 25.363281 7.5 Z M 0 -85.734375 C 0.117188 -73.589844 10.480469 -64.65625 21.671875 -64.65625 C 33.460938 -64.65625 40.367188 -78.472656 32.269531 -78.472656 C 17.980469 -78.472656 13.21875 -83.113281 13.21875 -89.902344 C 13.21875 -95.855469 18.574219 -100.023438 28.816406 -100.023438 C 47.867188 -100.023438 65.847656 -84.425781 83.589844 -84.425781 C 95.140625 -84.425781 105.382812 -88.355469 105.382812 -99.785156 C 105.382812 -104.546875 100.617188 -108.835938 100.617188 -104.785156 C 100.617188 -99.90625 93.472656 -97.046875 84.902344 -97.046875 C 64.539062 -97.046875 44.652344 -107.167969 28.101562 -107.167969 C 10.835938 -107.167969 -0.117188 -98.238281 0 -85.734375 Z M 0 -85.734375 "/></g></g></g><g fill="#ffcd75" fill-opacity="1"><g transform="translate(101.623202, 219.172326)"><g><path d="M 18.457031 0 C 30.484375 0 37.152344 -12.742188 39.175781 -23.339844 C 48.941406 -23.816406 56.085938 -31.675781 57.277344 -38.105469 C 58.464844 -44.414062 54.417969 -47.628906 51.441406 -41.082031 C 47.988281 -33.339844 42.628906 -31.554688 39.890625 -31.554688 C 39.890625 -40.128906 37.269531 -47.152344 30.722656 -47.152344 C 27.148438 -47.152344 24.171875 -43.699219 24.171875 -38.105469 C 24.171875 -33.339844 26.316406 -28.578125 30.601562 -25.71875 C 29.171875 -19.765625 25.363281 -14.171875 21.078125 -14.171875 C 17.625 -14.171875 15.003906 -17.863281 15.003906 -25.839844 C 15.003906 -33.816406 18.695312 -43.9375 29.292969 -49.535156 C 33.339844 -51.679688 31.078125 -55.847656 26.910156 -55.847656 C 12.144531 -55.847656 -1.191406 -39.652344 -1.191406 -21.433594 C -1.191406 -8.574219 7.621094 0 18.457031 0 Z M 18.457031 0 "/></g></g></g><g fill="#ffcd75" fill-opacity="1"><g transform="translate(148.418264, 219.172326)"><g><path d="M 18.457031 0 C 30.484375 0 37.152344 -12.742188 39.175781 -23.339844 C 48.941406 -23.816406 56.085938 -31.675781 57.277344 -38.105469 C 58.464844 -44.414062 54.417969 -47.628906 51.441406 -41.082031 C 47.988281 -33.339844 42.628906 -31.554688 39.890625 -31.554688 C 39.890625 -40.128906 37.269531 -47.152344 30.722656 -47.152344 C 27.148438 -47.152344 24.171875 -43.699219 24.171875 -38.105469 C 24.171875 -33.339844 26.316406 -28.578125 30.601562 -25.71875 C 29.171875 -19.765625 25.363281 -14.171875 21.078125 -14.171875 C 17.625 -14.171875 15.003906 -17.863281 15.003906 -25.839844 C 15.003906 -33.816406 18.695312 -43.9375 29.292969 -49.535156 C 33.339844 -51.679688 31.078125 -55.847656 26.910156 -55.847656 C 12.144531 -55.847656 -1.191406 -39.652344 -1.191406 -21.433594 C -1.191406 -8.574219 7.621094 0 18.457031 0 Z M 18.457031 0 "/></g></g></g><g fill="#ffcd75" fill-opacity="1"><g transform="translate(195.213326, 219.172326)"><g><path d="M 45.964844 0 C 56.679688 0 67.636719 -17.742188 74.421875 -38.105469 C 76.445312 -44.296875 71.207031 -47.152344 68.585938 -41.082031 C 60.847656 -22.980469 56.324219 -14.171875 51.320312 -14.171875 C 48.820312 -14.171875 46.796875 -17.027344 46.796875 -24.769531 C 46.796875 -47.035156 55.132812 -71.683594 60.96875 -85.496094 C 63.707031 -91.925781 49.179688 -91.332031 44.175781 -82.042969 C 39.296875 -73.113281 36.316406 -61.800781 34.292969 -51.320312 C 32.152344 -54.058594 29.054688 -55.964844 24.886719 -55.964844 C 10.121094 -55.964844 -0.59375 -38.105469 -0.59375 -22.027344 C -0.59375 -8.335938 7.144531 0 17.863281 0 C 24.292969 0 29.292969 -4.882812 33.101562 -11.550781 C 35.605469 -4.523438 40.484375 0 45.964844 0 Z M 15.597656 -22.386719 C 15.597656 -33.101562 21.195312 -47.152344 26.792969 -47.152344 C 29.769531 -47.152344 32.984375 -44.414062 32.03125 -35.484375 C 30.601562 -23.101562 25.007812 -14.171875 19.886719 -14.171875 C 17.503906 -14.171875 15.597656 -17.742188 15.597656 -22.386719 Z M 15.597656 -22.386719 "/></g></g></g><g fill="#ffcd75" fill-opacity="1"><g transform="translate(259.392805, 219.172326)"><g><path d="M 19.886719 0 C 30.839844 -0.117188 42.273438 -17.742188 49.058594 -38.105469 C 51.203125 -44.535156 45.84375 -47.152344 43.222656 -41.082031 C 35.367188 -22.742188 29.410156 -14.171875 23.816406 -14.171875 C 20.601562 -14.171875 17.863281 -17.863281 17.863281 -27.625 C 17.980469 -34.292969 19.648438 -42.390625 22.386719 -48.703125 C 25.125 -55.011719 10.121094 -54.296875 5.953125 -44.890625 C 2.5 -37.152344 2.023438 -28.816406 2.144531 -21.671875 C 2.382812 -9.050781 8.335938 0.117188 19.886719 0 Z M 12.859375 -66.207031 C 12.859375 -62.753906 15.835938 -60.371094 19.410156 -60.371094 C 26.195312 -60.371094 32.386719 -64.300781 32.386719 -70.492188 C 32.386719 -74.066406 29.648438 -77.042969 25.363281 -77.160156 C 18.933594 -77.398438 12.859375 -72.398438 12.859375 -66.207031 Z M 12.859375 -66.207031 "/></g></g></g><g fill="#ffcd75" fill-opacity="1"><g transform="translate(298.210072, 219.172326)"><g><path d="M 20.839844 0 C 38.460938 0 51.203125 -20.125 56.917969 -38.105469 C 58.703125 -43.699219 53.585938 -47.75 51.082031 -40.960938 C 46.558594 -28.460938 34.53125 -14.171875 25.242188 -14.171875 C 18.21875 -14.171875 16.433594 -19.410156 16.433594 -27.148438 L 16.433594 -27.746094 C 28.816406 -28.222656 39.175781 -34.292969 39.175781 -44.175781 C 39.175781 -50.726562 34.175781 -55.964844 25.363281 -55.964844 C 10.480469 -55.964844 -0.117188 -39.296875 0 -25.125 C -0.117188 -8.335938 10.835938 0 20.839844 0 Z M 17.386719 -35.246094 C 18.933594 -41.675781 22.027344 -48.34375 27.269531 -48.34375 C 30.363281 -48.34375 31.078125 -46.082031 31.078125 -44.175781 C 31.078125 -38.460938 24.171875 -35.722656 17.386719 -35.246094 Z M 17.386719 -35.246094 "/></g></g></g><path fill="#000000" d="M 208.929688 221.347656 L 282.800781 221.347656 C 290.71875 221.347656 297.136719 227.765625 297.136719 235.683594 L 297.136719 264.359375 C 297.136719 272.277344 290.71875 278.695312 282.800781 278.695312 L 208.929688 278.695312 C 201.011719 278.695312 194.59375 272.277344 194.59375 264.359375 L 194.59375 235.683594 C 194.59375 227.765625 201.011719 221.347656 208.929688 221.347656 Z M 208.929688 221.347656 " fill-opacity="1" fill-rule="nonzero"/><g fill="#ffcd75" fill-opacity="1"><g transform="translate(204.316895, 261.486278)"><g><path d="M 1.453125 -11.78125 C 1.453125 -14.070312 1.96875 -16.132812 3 -17.96875 C 4.039062 -19.800781 5.453125 -21.234375 7.234375 -22.265625 C 9.023438 -23.304688 11.015625 -23.828125 13.203125 -23.828125 C 15.765625 -23.828125 18 -23.207031 19.90625 -21.96875 C 21.820312 -20.726562 23.21875 -18.972656 24.09375 -16.703125 L 20.421875 -16.703125 C 19.765625 -18.117188 18.820312 -19.207031 17.59375 -19.96875 C 16.375 -20.738281 14.910156 -21.125 13.203125 -21.125 C 11.554688 -21.125 10.078125 -20.738281 8.765625 -19.96875 C 7.460938 -19.207031 6.441406 -18.125 5.703125 -16.71875 C 4.960938 -15.3125 4.59375 -13.664062 4.59375 -11.78125 C 4.59375 -9.914062 4.960938 -8.28125 5.703125 -6.875 C 6.441406 -5.46875 7.460938 -4.378906 8.765625 -3.609375 C 10.078125 -2.847656 11.554688 -2.46875 13.203125 -2.46875 C 14.910156 -2.46875 16.375 -2.84375 17.59375 -3.59375 C 18.820312 -4.34375 19.765625 -5.425781 20.421875 -6.84375 L 24.09375 -6.84375 C 23.21875 -4.59375 21.820312 -2.851562 19.90625 -1.625 C 18 -0.40625 15.765625 0.203125 13.203125 0.203125 C 11.015625 0.203125 9.023438 -0.304688 7.234375 -1.328125 C 5.453125 -2.359375 4.039062 -3.785156 3 -5.609375 C 1.96875 -7.429688 1.453125 -9.488281 1.453125 -11.78125 Z M 1.453125 -11.78125 "/></g></g></g><g fill="#ffcd75" fill-opacity="1"><g transform="translate(230.360487, 261.486278)"><g><path d="M 16.5 -5.234375 L 6.25 -5.234375 L 4.359375 0 L 1.109375 0 L 9.625 -23.390625 L 13.15625 -23.390625 L 21.640625 0 L 18.390625 0 Z M 15.625 -7.734375 L 11.375 -19.609375 L 7.125 -7.734375 Z M 15.625 -7.734375 "/></g></g></g><g fill="#ffcd75" fill-opacity="1"><g transform="translate(253.098022, 261.486278)"><g><path d="M 15.890625 -23.53125 L 15.890625 -21.03125 L 5.671875 -21.03125 L 5.671875 -13.09375 L 13.96875 -13.09375 L 13.96875 -10.59375 L 5.671875 -10.59375 L 5.671875 0 L 2.59375 0 L 2.59375 -23.53125 Z M 15.890625 -23.53125 "/></g></g></g><g fill="#ffcd75" fill-opacity="1"><g transform="translate(270.100566, 261.486278)"><g><path d="M 5.671875 -21.03125 L 5.671875 -13.15625 L 14.25 -13.15625 L 14.25 -10.625 L 5.671875 -10.625 L 5.671875 -2.53125 L 15.25 -2.53125 L 15.25 0 L 2.59375 0 L 2.59375 -23.5625 L 15.25 -23.5625 L 15.25 -21.03125 Z M 5.671875 -21.03125 "/></g></g></g><path fill="#000000" d="M 140.59375 93.308594 L 190.484375 93.308594 C 198.351562 93.308594 204.730469 99.6875 204.730469 107.554688 L 204.730469 136.039062 C 204.730469 143.90625 198.351562 150.28125 190.484375 150.28125 L 140.59375 150.28125 C 132.726562 150.28125 126.351562 143.90625 126.351562 136.039062 L 126.351562 107.554688 C 126.351562 99.6875 132.726562 93.308594 140.59375 93.308594 Z M 140.59375 93.308594 " fill-opacity="1" fill-rule="nonzero"/><g fill="#ffcd75" fill-opacity="1"><g transform="translate(136.072817, 133.4216)"><g><path d="M 17.078125 -23.53125 L 17.078125 -21.03125 L 10.671875 -21.03125 L 10.671875 0 L 7.59375 0 L 7.59375 -21.03125 L 1.140625 -21.03125 L 1.140625 -23.53125 Z M 17.078125 -23.53125 "/></g></g></g><g fill="#ffcd75" fill-opacity="1"><g transform="translate(154.331601, 133.4216)"><g><path d="M 20.71875 -23.53125 L 20.71875 0 L 17.65625 0 L 17.65625 -10.671875 L 5.671875 -10.671875 L 5.671875 0 L 2.59375 0 L 2.59375 -23.53125 L 5.671875 -23.53125 L 5.671875 -13.203125 L 17.65625 -13.203125 L 17.65625 -23.53125 Z M 20.71875 -23.53125 "/></g></g></g><g fill="#ffcd75" fill-opacity="1"><g transform="translate(177.686645, 133.4216)"><g><path d="M 5.671875 -21.03125 L 5.671875 -13.15625 L 14.25 -13.15625 L 14.25 -10.625 L 5.671875 -10.625 L 5.671875 -2.53125 L 15.25 -2.53125 L 15.25 0 L 2.59375 0 L 2.59375 -23.5625 L 15.25 -23.5625 L 15.25 -21.03125 Z M 5.671875 -21.03125 "/></g></g></g></svg>